<?xml version="1.0" encoding="iso-8859-1"?>
<!-- Generator: Adobe Illustrator 19.0.0, SVG Export Plug-In . SVG Version: 6.00 Build 0)  -->
<svg version="1.1" id="Layer_1" xmlns="http://www.w3.org/2000/svg" xmlns:xlink="http://www.w3.org/1999/xlink" x="0px" y="0px"
	 viewBox="0 0 512 512" style="enable-background:new 0 0 512 512;" xml:space="preserve">
<g>
	<g>
		<g>
			<path d="M502,92.5H10c-5.522,0-10,4.478-10,10v307c0,5.522,4.478,10,10,10h492c5.522,0,10-4.478,10-10v-307
				C512,96.978,507.522,92.5,502,92.5z M492,399.5H20v-287h472V399.5z"/>
			<path d="M298.667,315.5c0,30.327,24.673,55,55,55c8.966,0,17.664-2.156,25.5-6.271c7.836,4.115,16.534,6.271,25.5,6.271
				c30.327,0,55-24.673,55-55c0-30.327-24.673-55-55-55c-8.966,0-17.664,2.156-25.5,6.271c-7.836-4.115-16.534-6.271-25.5-6.271
				C323.34,260.5,298.667,285.173,298.667,315.5z M404.819,295.32c-1.957-4.989-4.674-9.74-8.018-13.932
				c2.559-0.589,5.193-0.889,7.866-0.889c19.299,0,35,15.701,35,35s-15.701,35.001-35,35.001c-2.673,0-5.308-0.3-7.866-0.889
				C408.917,334.426,411.887,313.346,404.819,295.32z M379.167,291.562c6.033,6.428,9.5,14.956,9.5,23.938s-3.467,17.51-9.5,23.938
				c-6.033-6.429-9.5-14.957-9.5-23.938C369.667,306.519,373.134,297.99,379.167,291.562z M352.659,333.349
				c2.009,5.848,5.014,11.424,8.874,16.263c-2.558,0.588-5.193,0.888-7.866,0.888c-19.299,0-35-15.701-35-35s15.701-35,35-35
				c2.673,0,5.308,0.3,7.866,0.889c-0.132,0.166-0.254,0.339-0.384,0.506C349.943,296.403,346.702,316.01,352.659,333.349z"/>
			<path d="M244.667,339.5h-178c-5.522,0-10,4.478-10,10c0,5.522,4.478,10,10,10h178c5.522,0,10-4.478,10-10
				C254.667,343.978,250.189,339.5,244.667,339.5z"/>
			<path d="M244.667,282.5h-45c-5.522,0-10,4.478-10,10c0,5.522,4.478,10,10,10h45c5.522,0,10-4.478,10-10
				C254.667,286.978,250.189,282.5,244.667,282.5z"/>
			<path d="M53.667,228.5c0,5.522,4.478,10,10,10h304c5.522,0,10-4.478,10-10c0-5.522-4.478-10-10-10h-304
				C58.145,218.5,53.667,222.978,53.667,228.5z"/>
			<path d="M405.667,238.5h40c5.522,0,10-4.478,10-10c0-5.522-4.478-10-10-10h-40c-5.522,0-10,4.478-10,10
				C395.667,234.022,400.145,238.5,405.667,238.5z"/>
			<path d="M60.667,197.5h61c5.522,0,10-4.478,10-10v-42c0-5.522-4.478-10-10-10h-61c-5.522,0-10,4.478-10,10v42
				C50.667,193.022,55.145,197.5,60.667,197.5z M70.667,155.5h41v22h-41V155.5z"/>
		</g>
	</g>
</g>
<g>
</g>
<g>
</g>
<g>
</g>
<g>
</g>
<g>
</g>
<g>
</g>
<g>
</g>
<g>
</g>
<g>
</g>
<g>
</g>
<g>
</g>
<g>
</g>
<g>
</g>
<g>
</g>
<g>
</g>
</svg>
