<?xml version="1.0" encoding="iso-8859-1"?>
<!-- Generator: Adobe Illustrator 19.0.0, SVG Export Plug-In . SVG Version: 6.00 Build 0)  -->
<svg version="1.1" id="Capa_1" xmlns="http://www.w3.org/2000/svg" xmlns:xlink="http://www.w3.org/1999/xlink" x="0px" y="0px"
	 viewBox="0 0 479 479" style="enable-background:new 0 0 479 479;" xml:space="preserve">
<g>
	<path d="M455.5,0h-432C10.542,0,0,10.542,0,23.5v432C0,468.458,10.542,479,23.5,479h432c12.958,0,23.5-10.542,23.5-23.5v-432
		C479,10.542,468.458,0,455.5,0z M464,455.5c0,4.687-3.813,8.5-8.5,8.5h-432c-4.687,0-8.5-3.813-8.5-8.5v-432
		c0-4.687,3.813-8.5,8.5-8.5h432c4.687,0,8.5,3.813,8.5,8.5V455.5z"/>
	<path d="M339.219,297.073c8.663-15.004,3.503-34.259-11.501-42.922c-5.012-2.894-19.52-9.132-35.413-14.65
		c15.893-5.519,30.401-11.757,35.413-14.65c15.004-8.663,20.164-27.918,11.501-42.922c-4.196-7.269-10.972-12.468-19.079-14.64
		c-8.106-2.171-16.574-1.058-23.843,3.139c-5.274,3.044-17.881,12.532-30.404,23.367c3.171-16.556,5.028-32.287,5.028-38.017
		c0-17.326-14.096-31.421-31.421-31.421s-31.421,14.096-31.421,31.421c0,5.729,1.857,21.461,5.029,38.017
		c-12.521-10.833-25.127-20.32-30.404-23.367c-7.269-4.197-15.737-5.311-23.843-3.139c-8.107,2.172-14.883,7.372-19.079,14.64
		c-8.663,15.004-3.503,34.259,11.501,42.922c5.013,2.894,19.522,9.133,35.417,14.652c-15.603,5.408-30.062,11.558-35.417,14.649
		c-15.004,8.663-20.164,27.918-11.501,42.922c4.196,7.269,10.972,12.468,19.079,14.64c2.707,0.725,5.454,1.084,8.184,1.084
		c5.444,0,10.818-1.428,15.659-4.223c5.274-3.044,17.881-12.532,30.404-23.367c-3.171,16.556-5.028,32.287-5.028,38.017
		c0,17.326,14.096,31.421,31.421,31.421s31.421-14.096,31.421-31.421c0-5.728-1.856-21.456-5.027-38.009
		c12.757,11.027,25.46,20.505,30.402,23.359c4.842,2.795,10.214,4.223,15.659,4.223c2.729,0,5.477-0.359,8.184-1.084
		C328.247,309.541,335.022,304.341,339.219,297.073z M223.079,239.5c0-9.055,7.367-16.421,16.421-16.421s16.421,7.367,16.421,16.421
		s-7.367,16.421-16.421,16.421S223.079,248.555,223.079,239.5z M303.797,183.417c3.798-2.193,8.224-2.777,12.46-1.64
		c4.237,1.135,7.778,3.852,9.971,7.651c4.527,7.842,1.831,17.905-6.011,22.432c-5.682,3.28-29.504,13.244-50.506,19.029
		c-1.439-5.042-4.106-9.568-7.66-13.235C277.397,202.527,298.048,186.735,303.797,183.417z M239.5,139.354
		c9.055,0,16.421,7.367,16.421,16.421c0,6.484-3.285,32.163-8.771,53.249c-2.45-0.615-5.012-0.946-7.65-0.946
		c-2.638,0-5.2,0.331-7.65,0.946c-5.486-21.087-8.772-46.767-8.772-53.249C223.079,146.721,230.445,139.354,239.5,139.354z
		 M152.771,189.427c2.193-3.799,5.734-6.516,9.971-7.651c4.237-1.137,8.662-0.552,12.46,1.64
		c5.753,3.321,26.401,19.11,41.745,34.236c-3.554,3.667-6.221,8.194-7.66,13.236c-21.002-5.785-44.824-15.749-50.506-19.029
		C150.941,207.332,148.244,197.269,152.771,189.427z M175.203,295.583c-3.799,2.193-8.224,2.776-12.46,1.64
		c-4.237-1.135-7.778-3.852-9.971-7.651c-4.527-7.842-1.831-17.905,6.01-22.432c5.849-3.376,29.75-13.317,50.506-19.032
		c1.439,5.043,4.106,9.57,7.661,13.238C201.603,276.473,180.952,292.265,175.203,295.583z M239.5,339.646
		c-9.055,0-16.421-7.367-16.421-16.421c0-6.484,3.285-32.163,8.771-53.249c2.45,0.615,5.012,0.946,7.65,0.946
		c2.638,0,5.2-0.331,7.65-0.946c5.486,21.087,8.772,46.767,8.772,53.249C255.921,332.279,248.555,339.646,239.5,339.646z
		 M303.797,295.583c-5.593-3.229-26.223-18.937-41.746-34.236c3.554-3.667,6.221-8.194,7.661-13.236
		c21.002,5.785,44.824,15.749,50.506,19.029c7.841,4.527,10.538,14.59,6.011,22.432c-2.193,3.799-5.734,6.516-9.971,7.651
		C312.021,298.359,307.596,297.776,303.797,295.583z"/>
	<path d="M39.5,111c4.142,0,7.5-3.358,7.5-7.5v-16c0-4.142-3.358-7.5-7.5-7.5S32,83.358,32,87.5v16C32,107.642,35.358,111,39.5,111z
		"/>
	<path d="M39.5,159c4.142,0,7.5-3.358,7.5-7.5v-16c0-4.142-3.358-7.5-7.5-7.5s-7.5,3.358-7.5,7.5v16C32,155.642,35.358,159,39.5,159
		z"/>
	<path d="M39.5,207c4.142,0,7.5-3.358,7.5-7.5v-16c0-4.142-3.358-7.5-7.5-7.5s-7.5,3.358-7.5,7.5v16C32,203.642,35.358,207,39.5,207
		z"/>
	<path d="M39.5,255c4.142,0,7.5-3.358,7.5-7.5v-16c0-4.142-3.358-7.5-7.5-7.5s-7.5,3.358-7.5,7.5v16C32,251.642,35.358,255,39.5,255
		z"/>
	<path d="M39.5,303c4.142,0,7.5-3.358,7.5-7.5v-16c0-4.142-3.358-7.5-7.5-7.5s-7.5,3.358-7.5,7.5v16C32,299.642,35.358,303,39.5,303
		z"/>
	<path d="M39.5,351c4.142,0,7.5-3.358,7.5-7.5v-16c0-4.142-3.358-7.5-7.5-7.5s-7.5,3.358-7.5,7.5v16C32,347.642,35.358,351,39.5,351
		z"/>
	<path d="M39.5,399c4.142,0,7.5-3.358,7.5-7.5v-16c0-4.142-3.358-7.5-7.5-7.5s-7.5,3.358-7.5,7.5v16C32,395.642,35.358,399,39.5,399
		z"/>
	<path d="M103.5,32h-16c-4.142,0-7.5,3.358-7.5,7.5s3.358,7.5,7.5,7.5h16c4.142,0,7.5-3.358,7.5-7.5S107.642,32,103.5,32z"/>
	<path d="M135.5,47h16c4.142,0,7.5-3.358,7.5-7.5s-3.358-7.5-7.5-7.5h-16c-4.142,0-7.5,3.358-7.5,7.5S131.358,47,135.5,47z"/>
	<path d="M183.5,47h16c4.142,0,7.5-3.358,7.5-7.5s-3.358-7.5-7.5-7.5h-16c-4.142,0-7.5,3.358-7.5,7.5S179.358,47,183.5,47z"/>
	<path d="M231.5,47h16c4.142,0,7.5-3.358,7.5-7.5s-3.358-7.5-7.5-7.5h-16c-4.142,0-7.5,3.358-7.5,7.5S227.358,47,231.5,47z"/>
	<path d="M279.5,47h16c4.142,0,7.5-3.358,7.5-7.5s-3.358-7.5-7.5-7.5h-16c-4.142,0-7.5,3.358-7.5,7.5S275.358,47,279.5,47z"/>
	<path d="M343.5,32h-16c-4.142,0-7.5,3.358-7.5,7.5s3.358,7.5,7.5,7.5h16c4.142,0,7.5-3.358,7.5-7.5S347.642,32,343.5,32z"/>
	<path d="M391.5,32h-16c-4.142,0-7.5,3.358-7.5,7.5s3.358,7.5,7.5,7.5h16c4.142,0,7.5-3.358,7.5-7.5S395.642,32,391.5,32z"/>
	<path d="M103.5,432h-16c-4.142,0-7.5,3.358-7.5,7.5s3.358,7.5,7.5,7.5h16c4.142,0,7.5-3.358,7.5-7.5S107.642,432,103.5,432z"/>
	<path d="M151.5,432h-16c-4.142,0-7.5,3.358-7.5,7.5s3.358,7.5,7.5,7.5h16c4.142,0,7.5-3.358,7.5-7.5S155.642,432,151.5,432z"/>
	<path d="M199.5,432h-16c-4.142,0-7.5,3.358-7.5,7.5s3.358,7.5,7.5,7.5h16c4.142,0,7.5-3.358,7.5-7.5S203.642,432,199.5,432z"/>
	<path d="M247.5,432h-16c-4.142,0-7.5,3.358-7.5,7.5s3.358,7.5,7.5,7.5h16c4.142,0,7.5-3.358,7.5-7.5S251.642,432,247.5,432z"/>
	<path d="M295.5,432h-16c-4.142,0-7.5,3.358-7.5,7.5s3.358,7.5,7.5,7.5h16c4.142,0,7.5-3.358,7.5-7.5S299.642,432,295.5,432z"/>
	<path d="M343.5,432h-16c-4.142,0-7.5,3.358-7.5,7.5s3.358,7.5,7.5,7.5h16c4.142,0,7.5-3.358,7.5-7.5S347.642,432,343.5,432z"/>
	<path d="M391.5,432h-16c-4.142,0-7.5,3.358-7.5,7.5s3.358,7.5,7.5,7.5h16c4.142,0,7.5-3.358,7.5-7.5S395.642,432,391.5,432z"/>
	<path d="M55.5,32h-16c-4.142,0-7.5,3.358-7.5,7.5v16c0,4.142,3.358,7.5,7.5,7.5s7.5-3.358,7.5-7.5V47h8.5
		c4.142,0,7.5-3.358,7.5-7.5S59.642,32,55.5,32z"/>
	<path d="M55.5,432H47v-8.5c0-4.142-3.358-7.5-7.5-7.5s-7.5,3.358-7.5,7.5v16c0,4.142,3.358,7.5,7.5,7.5h16
		c4.142,0,7.5-3.358,7.5-7.5S59.642,432,55.5,432z"/>
	<path d="M439.5,368c-4.142,0-7.5,3.358-7.5,7.5v16c0,4.142,3.358,7.5,7.5,7.5s7.5-3.358,7.5-7.5v-16
		C447,371.358,443.642,368,439.5,368z"/>
	<path d="M439.5,320c-4.142,0-7.5,3.358-7.5,7.5v16c0,4.142,3.358,7.5,7.5,7.5s7.5-3.358,7.5-7.5v-16
		C447,323.358,443.642,320,439.5,320z"/>
	<path d="M439.5,272c-4.142,0-7.5,3.358-7.5,7.5v16c0,4.142,3.358,7.5,7.5,7.5s7.5-3.358,7.5-7.5v-16
		C447,275.358,443.642,272,439.5,272z"/>
	<path d="M439.5,224c-4.142,0-7.5,3.358-7.5,7.5v16c0,4.142,3.358,7.5,7.5,7.5s7.5-3.358,7.5-7.5v-16
		C447,227.358,443.642,224,439.5,224z"/>
	<path d="M439.5,176c-4.142,0-7.5,3.358-7.5,7.5v16c0,4.142,3.358,7.5,7.5,7.5s7.5-3.358,7.5-7.5v-16
		C447,179.358,443.642,176,439.5,176z"/>
	<path d="M439.5,128c-4.142,0-7.5,3.358-7.5,7.5v16c0,4.142,3.358,7.5,7.5,7.5s7.5-3.358,7.5-7.5v-16
		C447,131.358,443.642,128,439.5,128z"/>
	<path d="M439.5,80c-4.142,0-7.5,3.358-7.5,7.5v16c0,4.142,3.358,7.5,7.5,7.5s7.5-3.358,7.5-7.5v-16C447,83.358,443.642,80,439.5,80
		z"/>
	<path d="M439.5,416c-4.142,0-7.5,3.358-7.5,7.5v8.5h-8.5c-4.142,0-7.5,3.358-7.5,7.5s3.358,7.5,7.5,7.5h16
		c4.142,0,7.5-3.358,7.5-7.5v-16C447,419.358,443.642,416,439.5,416z"/>
	<path d="M439.5,32h-16c-4.142,0-7.5,3.358-7.5,7.5s3.358,7.5,7.5,7.5h8.5v8.5c0,4.142,3.358,7.5,7.5,7.5s7.5-3.358,7.5-7.5v-16
		C447,35.358,443.642,32,439.5,32z"/>
</g>
<g>
</g>
<g>
</g>
<g>
</g>
<g>
</g>
<g>
</g>
<g>
</g>
<g>
</g>
<g>
</g>
<g>
</g>
<g>
</g>
<g>
</g>
<g>
</g>
<g>
</g>
<g>
</g>
<g>
</g>
</svg>
